<svg width="512" height="512" viewBox="0 0 512 512" fill="none" xmlns="http://www.w3.org/2000/svg">
<rect width="512" height="512" rx="50" fill="#EE5A5A"/>
<g filter="url(#filter0_d_13_5)">
<path d="M256.293 337.222C255.512 338.395 252.976 341.134 248.683 345.437C244.39 349.74 241.463 352.674 239.902 354.239C238.732 355.803 236 358.737 231.707 363.041C227.805 366.953 224.683 369.887 222.341 371.843C220.39 373.407 217.463 375.754 213.561 378.884C209.659 382.014 206.146 384.361 203.024 385.926C200.293 387.099 197.171 388.664 193.659 390.62C190.146 392.185 186.634 393.358 183.122 394.141C179.61 394.923 176.098 395.314 172.585 395.314C155.415 395.314 139.024 388.273 123.415 374.19C107.805 360.107 100 345.046 100 329.006C100 325.095 101.561 320.791 104.683 316.097C108.195 311.011 113.073 305.535 119.317 299.667C125.951 293.799 131.61 288.713 136.293 284.41C141.366 280.107 147.61 275.021 155.024 269.153C162.829 263.285 167.512 259.569 169.073 258.004C165.951 255.657 161.463 252.136 155.61 247.442C149.756 242.356 144.878 238.053 140.976 234.533C137.073 231.012 132.585 226.709 127.512 221.623C122.439 216.146 118.341 211.061 115.22 206.366C112.488 201.281 109.951 195.608 107.61 189.349C105.268 183.09 104.098 176.635 104.098 169.985C104.098 156.684 110.537 144.362 123.415 133.017C136.293 121.672 149.561 116 163.22 116C170.634 116 177.854 117.565 184.878 120.694C191.902 123.824 198.537 128.323 204.78 134.191C211.415 139.667 217.268 145.34 222.341 151.208C227.805 156.684 233.659 163.335 239.902 171.159C246.537 178.591 252 184.264 256.293 188.176C260.585 184.264 267.22 177.027 276.195 166.464C285.171 155.902 292.585 147.687 298.439 141.819C304.293 135.56 311.902 129.692 321.268 124.215C330.634 118.738 339.805 116 348.78 116C354.244 116 359.902 117.174 365.756 119.521C371.61 121.477 376.878 124.411 381.561 128.323C386.634 131.843 391.122 135.951 395.024 140.645C399.317 144.949 402.439 149.838 404.39 155.315C406.732 160.401 407.902 165.486 407.902 170.572C407.902 177.222 406.732 183.873 404.39 190.523C402.049 196.782 397.561 203.824 390.927 211.648C384.293 219.08 379.415 224.557 376.293 228.078C373.561 231.207 367.317 237.075 357.561 245.682C348.195 253.897 343.512 258.004 343.512 258.004C344.683 259.569 349.171 263.285 356.976 269.153C364.78 275.021 371.024 280.107 375.707 284.41C380.781 288.713 386.439 293.799 392.683 299.667C398.927 305.535 403.61 311.011 406.732 316.097C410.244 320.791 412 325.095 412 329.006C412 345.046 404.195 360.107 388.585 374.19C372.976 388.273 356.585 395.314 339.415 395.314C335.512 395.314 331.415 394.728 327.122 393.554C323.22 392.38 319.512 391.207 316 390.033C312.878 388.468 309.171 386.121 304.878 382.992C300.585 379.862 297.073 377.319 294.341 375.363C292 373.407 288.488 370.278 283.805 365.975C279.512 361.671 276.39 358.737 274.439 357.173C272.878 355.217 269.756 351.696 265.073 346.61C260.39 341.525 257.463 338.395 256.293 337.222Z" fill="#ECC040"/>
</g>
<defs>
<filter id="filter0_d_13_5" x="100" y="116" width="322" height="289.314" filterUnits="userSpaceOnUse" color-interpolation-filters="sRGB">
<feFlood flood-opacity="0" result="BackgroundImageFix"/>
<feColorMatrix in="SourceAlpha" type="matrix" values="0 0 0 0 0 0 0 0 0 0 0 0 0 0 0 0 0 0 127 0" result="hardAlpha"/>
<feOffset dx="10" dy="10"/>
<feComposite in2="hardAlpha" operator="out"/>
<feColorMatrix type="matrix" values="0 0 0 0 0.960784 0 0 0 0 0.870588 0 0 0 0 0.701961 0 0 0 1 0"/>
<feBlend mode="normal" in2="BackgroundImageFix" result="effect1_dropShadow_13_5"/>
<feBlend mode="normal" in="SourceGraphic" in2="effect1_dropShadow_13_5" result="shape"/>
</filter>
</defs>
</svg>
