<svg width="512" height="512" viewBox="0 0 512 512" fill="none" xmlns="http://www.w3.org/2000/svg">
<rect width="512" height="512" rx="50" fill="#EE5A5A"/>
<g filter="url(#filter0_d_13_5)">
<path d="M256.942 414C236.846 414 218.635 411.335 202.307 406.004C186.294 400.361 171.693 391.581 158.505 379.666C145.631 367.751 135.584 351.447 128.362 330.752C121.454 310.058 118 285.758 118 257.852C118 227.751 121.454 202.04 128.362 180.718C135.27 159.397 145.16 142.778 158.034 130.864C170.908 118.949 185.352 110.326 201.365 104.996C217.379 99.6652 235.904 97 256.942 97C277.352 97 295.72 100.136 312.048 106.407C328.375 112.364 342.662 121.614 354.908 134.156C367.468 146.698 377.044 163.473 383.638 184.481C390.546 205.175 394 229.632 394 257.852C394 286.071 390.546 310.528 383.638 331.223C376.73 351.603 366.84 367.751 353.966 379.666C341.406 391.581 326.962 400.361 310.635 406.004C294.621 411.335 276.724 414 256.942 414ZM282.375 319.464C288.027 302.219 290.853 281.682 290.853 257.852C290.853 233.708 287.87 212.387 281.904 193.887C275.939 175.388 267.618 166.138 256.942 166.138C249.406 166.138 242.812 170.841 237.16 180.248C231.823 189.654 227.898 201.256 225.386 215.052C222.874 228.535 221.618 242.801 221.618 257.852C221.618 281.054 224.601 301.435 230.567 318.994C236.846 336.553 245.638 345.332 256.942 345.332C268.246 345.332 276.724 336.71 282.375 319.464Z" fill="white"/>
</g>
<defs>
<filter id="filter0_d_13_5" x="118" y="97" width="286" height="327" filterUnits="userSpaceOnUse" color-interpolation-filters="sRGB">
<feFlood flood-opacity="0" result="BackgroundImageFix"/>
<feColorMatrix in="SourceAlpha" type="matrix" values="0 0 0 0 0 0 0 0 0 0 0 0 0 0 0 0 0 0 127 0" result="hardAlpha"/>
<feOffset dx="10" dy="10"/>
<feComposite in2="hardAlpha" operator="out"/>
<feColorMatrix type="matrix" values="0 0 0 0 0.92549 0 0 0 0 0.752941 0 0 0 0 0.25098 0 0 0 1 0"/>
<feBlend mode="normal" in2="BackgroundImageFix" result="effect1_dropShadow_13_5"/>
<feBlend mode="normal" in="SourceGraphic" in2="effect1_dropShadow_13_5" result="shape"/>
</filter>
</defs>
</svg>
